<svg width="127" height="39" viewBox="0 0 127 39" fill="none" xmlns="http://www.w3.org/2000/svg">
<path d="M19.5 2C17.2019 2 14.9262 2.4527 12.803 3.3321C10.6798 4.2116 8.7507 5.5006 7.1256 7.1256C5.5006 8.7507 4.2116 10.6798 3.3321 12.803C2.4527 14.9262 2 17.2019 2 19.5C2 21.7981 2.4527 24.0738 3.3321 26.197C4.2116 28.3202 5.5006 30.2493 7.1256 31.8744C8.7507 33.4994 10.6798 34.7884 12.803 35.6679C14.9262 36.5473 17.2019 37 19.5 37V28.25C18.3509 28.25 17.2131 28.0237 16.1515 27.5839C15.0899 27.1442 14.1253 26.4997 13.3128 25.6872C12.5003 24.8747 11.8558 23.9101 11.4161 22.8485C10.9763 21.7869 10.75 20.6491 10.75 19.5C10.75 18.3509 10.9763 17.2131 11.4161 16.1515C11.8558 15.0899 12.5003 14.1253 13.3128 13.3128C14.1253 12.5003 15.0899 11.8558 16.1515 11.4161C17.2131 10.9763 18.3509 10.75 19.5 10.75V2Z" fill="#282E32"/>
<path d="M19.5 25.3326C22.7217 25.3326 25.3333 22.721 25.3333 19.4993C25.3333 16.2776 22.7217 13.666 19.5 13.666C16.2783 13.666 13.6667 16.2776 13.6667 19.4993C13.6667 22.721 16.2783 25.3326 19.5 25.3326Z" fill="#282E32"/>
<path d="M2 19.5C2 21.7981 2.4527 24.0738 3.3321 26.197C4.2116 28.3202 5.5006 30.2493 7.1256 31.8744C8.7507 33.4994 10.6798 34.7884 12.803 35.6679C14.9262 36.5473 17.2019 37 19.5 37C21.7981 37 24.0738 36.5473 26.197 35.6679C28.3202 34.7884 30.2493 33.4994 31.8744 31.8744C33.4994 30.2493 34.7884 28.3202 35.6679 26.197C36.5473 24.0738 37 21.7981 37 19.5H28.25C28.25 20.6491 28.0237 21.7869 27.5839 22.8485C27.1442 23.9101 26.4997 24.8747 25.6872 25.6872C24.8747 26.4997 23.9101 27.1442 22.8485 27.5839C21.7869 28.0237 20.6491 28.25 19.5 28.25C18.3509 28.25 17.2131 28.0237 16.1515 27.5839C15.0899 27.1442 14.1253 26.4997 13.3128 25.6872C12.5003 24.8747 11.8558 23.9101 11.4161 22.8485C10.9763 21.7869 10.75 20.6491 10.75 19.5H2Z" fill="#282E32"/>
<path d="M25.3334 19.4994C25.3334 17.9523 24.7188 16.4686 23.6249 15.3746C22.5309 14.2806 21.0472 13.666 19.5001 13.666C17.953 13.666 16.4693 14.2806 15.3753 15.3746C14.2813 16.4686 13.6667 17.9523 13.6667 19.4994H19.5001H25.3334Z" fill="#282E32"/>
<path d="M46.1396 12.9258H43.9661V25.0008H46.1396V12.9258Z" fill="#282E32"/>
<path d="M47.5588 20.7226C47.5588 23.5171 49.4908 25.2421 52.0438 25.2421C54.5968 25.2421 56.5288 23.5171 56.5288 20.7226C56.5288 17.9281 54.5968 16.2031 52.0438 16.2031C49.4908 16.2031 47.5588 17.9281 47.5588 20.7226ZM49.7323 20.7226C49.7323 19.0666 50.6983 18.1006 52.0438 18.1006C53.3893 18.1006 54.3553 19.0666 54.3553 20.7226C54.3553 22.3786 53.3893 23.3446 52.0438 23.3446C50.6983 23.3446 49.7323 22.3786 49.7323 20.7226Z" fill="#282E32"/>
<path d="M64.2959 16.4446V17.6003H64.1234C63.6059 16.8586 62.7779 16.2031 61.2944 16.2031C59.2589 16.2031 57.4304 17.9281 57.4304 20.5846C57.4304 23.2411 59.2589 24.9661 61.2944 24.9661C62.7779 24.9661 63.6059 24.2933 64.0889 23.6206H64.2614V24.4486C64.2614 26.1046 63.2954 26.8636 61.8809 26.8636C60.4664 26.8636 59.7419 26.1046 59.4486 25.1213L57.4994 25.9666C57.9479 27.2603 59.2589 28.6921 61.9154 28.6921C64.6409 28.6921 66.4349 27.2603 66.4349 24.5003V16.4446H64.2959ZM61.9499 23.1031C60.6044 23.1031 59.6039 22.1371 59.6039 20.5846C59.6039 19.0321 60.6044 18.0661 61.9499 18.0661C63.2954 18.0661 64.2959 19.0321 64.2959 20.5846C64.2959 22.1371 63.2954 23.1031 61.9499 23.1031Z" fill="#282E32"/>
<path d="M67.8411 20.7226C67.8411 23.5171 69.7731 25.2421 72.3261 25.2421C74.8791 25.2421 76.811 23.5171 76.811 20.7226C76.811 17.9281 74.8791 16.2031 72.3261 16.2031C69.7731 16.2031 67.8411 17.9281 67.8411 20.7226ZM70.0146 20.7226C70.0146 19.0666 70.9806 18.1006 72.3261 18.1006C73.6716 18.1006 74.6376 19.0666 74.6376 20.7226C74.6376 22.3786 73.6716 23.3446 72.3261 23.3446C70.9806 23.3446 70.0146 22.3786 70.0146 20.7226Z" fill="#282E32"/>
<path d="M78.5171 13.9601C78.5171 14.8399 79.1901 15.4436 80.0531 15.4436C80.9151 15.4436 81.5881 14.8399 81.5881 13.9601C81.5881 13.0804 80.9151 12.4766 80.0531 12.4766C79.1901 12.4766 78.5171 13.0804 78.5171 13.9601ZM81.1391 16.4441H78.9661V25.0001H81.1391V16.4441Z" fill="#282E32"/>
<path d="M83.0759 28.4506H85.2499V23.8966H85.4219C85.9049 24.5866 86.7329 25.2421 88.2169 25.2421C90.2519 25.2421 92.0809 23.5171 92.0809 20.7226C92.0809 17.9281 90.2519 16.2031 88.2169 16.2031C86.7329 16.2031 85.9049 16.8586 85.3879 17.6004H85.2149V16.4446H83.0759V28.4506ZM87.5609 23.3791C86.2159 23.3791 85.2149 22.4131 85.2149 20.7226C85.2149 19.0321 86.2159 18.0661 87.5609 18.0661C88.9069 18.0661 89.9069 19.0321 89.9069 20.7226C89.9069 22.4131 88.9069 23.3791 87.5609 23.3791Z" fill="#282E32"/>
<path d="M93.3491 18.8424C93.3491 20.5329 94.7631 21.1539 96.5571 21.4989L97.0061 21.5851C98.0751 21.7921 98.5581 22.0509 98.5581 22.6029C98.5581 23.1549 98.0751 23.5861 97.0751 23.5861C96.0741 23.5861 95.2641 23.1721 95.0391 21.9301L93.0381 22.4476C93.3321 24.2416 94.8321 25.2421 97.0751 25.2421C99.2481 25.2421 100.663 24.2244 100.663 22.4304C100.663 20.6363 99.2141 20.1534 97.2821 19.7739L96.8331 19.6876C95.9361 19.5151 95.4531 19.2736 95.4531 18.7044C95.4531 18.1869 95.9021 17.8591 96.7301 17.8591C97.5581 17.8591 98.1441 18.2041 98.3511 19.1356L100.318 18.5319C99.9041 17.1519 98.6451 16.2031 96.7301 16.2031C94.6941 16.2031 93.3491 17.1519 93.3491 18.8424Z" fill="#282E32"/>
<path d="M110.426 24.9994V16.4434H108.253V20.8594C108.253 22.4464 107.477 23.3779 106.148 23.3779C104.975 23.3779 104.32 22.7397 104.32 21.4459V16.4434H102.146V21.5494C102.146 23.6712 103.475 25.1374 105.476 25.1374C107.045 25.1374 107.77 24.4474 108.115 23.7229H108.287V24.9994H110.426Z" fill="#282E32"/>
<path d="M112.354 16.4446V25.0006H114.528V19.8946C114.528 18.7216 115.08 18.0661 116.08 18.0661C116.943 18.0661 117.46 18.5491 117.46 19.4806V25.0006H119.634V19.8946C119.634 18.7216 120.186 18.0661 121.186 18.0661C122.049 18.0661 122.566 18.5491 122.566 19.4806V25.0006H124.74V19.3771C124.74 17.3071 123.463 16.3066 121.876 16.3066C120.479 16.3066 119.841 16.9276 119.427 17.6521H119.254C118.857 16.8414 118.15 16.3066 116.908 16.3066C115.666 16.3066 114.993 16.8586 114.666 17.5141H114.493V16.4446H112.354Z" fill="#282E32"/>
</svg>
