<svg width="155" height="29" viewBox="0 0 155 29" fill="none" xmlns="http://www.w3.org/2000/svg">
<g clip-path="url(#clip0_399_677)">
<path d="M10.4469 23.968C7.46073 26.9542 2.40329 26.9423 0.990883 22.9624C0.714354 22.1832 0.493259 21.382 0.330644 20.5645C-0.333309 17.2265 0.00745571 13.7667 1.30985 10.6224C2.61224 7.4782 4.81776 4.79076 7.64751 2.89998C10.4773 1.0092 13.8042 -1.45785e-07 17.2075 0C20.6108 1.45785e-07 23.9377 1.0092 26.7674 2.89998C29.5972 4.79076 31.8027 7.4782 33.1051 10.6225C34.4075 13.7667 34.7482 17.2265 34.0843 20.5645C33.9217 21.382 33.7006 22.1832 33.424 22.9624C32.0116 26.9423 26.9542 26.9542 23.968 23.968L19.3584 19.3584C18.918 18.918 18.9635 18.1917 19.085 17.5809C19.1588 17.2096 19.1209 16.8247 18.976 16.4749C18.8311 16.1251 18.5858 15.8261 18.271 15.6158C17.9562 15.4055 17.5861 15.2932 17.2075 15.2932C16.8289 15.2932 16.4588 15.4055 16.144 15.6158C15.8291 15.8261 15.5838 16.1251 15.4389 16.4749C15.294 16.8247 15.2561 17.2096 15.33 17.5809C15.4515 18.1917 15.4969 18.918 15.0565 19.3584L10.4469 23.968Z" fill="url(#paint0_linear_399_677)"/>
<path d="M48.4145 19.8363H53.0398V22.562H44.8835V8.06641H48.4145V19.8363Z" fill="#282E32"/>
<path d="M59.3495 22.7275C58.2207 22.7275 57.202 22.4866 56.2934 22.0048C55.3987 21.523 54.6897 20.8347 54.1666 19.9399C53.6573 19.0451 53.4026 17.9989 53.4026 16.8012C53.4026 15.6174 53.6641 14.578 54.1872 13.6832C54.7104 12.7747 55.4262 12.0795 56.3347 11.5977C57.2433 11.1159 58.262 10.875 59.3908 10.875C60.5196 10.875 61.5383 11.1159 62.4468 11.5977C63.3554 12.0795 64.0712 12.7747 64.5943 13.6832C65.1174 14.578 65.379 15.6174 65.379 16.8012C65.379 17.9851 65.1105 19.0313 64.5737 19.9399C64.0506 20.8347 63.3279 21.523 62.4055 22.0048C61.497 22.4866 60.4783 22.7275 59.3495 22.7275ZM59.3495 19.6714C60.024 19.6714 60.5953 19.4237 61.0634 18.9281C61.5452 18.4325 61.7861 17.7236 61.7861 16.8012C61.7861 15.8789 61.552 15.17 61.084 14.6744C60.6297 14.1788 60.0653 13.931 59.3908 13.931C58.7025 13.931 58.1312 14.1788 57.6769 14.6744C57.2226 15.1562 56.9955 15.8651 56.9955 16.8012C56.9955 17.7236 57.2158 18.4325 57.6563 18.9281C58.1106 19.4237 58.675 19.6714 59.3495 19.6714Z" fill="#282E32"/>
<path d="M71.0103 10.875C71.8225 10.875 72.5315 11.0402 73.1372 11.3706C73.7566 11.7009 74.2316 12.1346 74.562 12.6714V11.0402H78.0929V22.5416C78.0929 23.6016 77.8796 24.5584 77.4528 25.4118C77.0398 26.2791 76.3997 26.9674 75.5325 27.4767C74.679 27.9861 73.6121 28.2408 72.3319 28.2408C70.6249 28.2408 69.2414 27.8347 68.1814 27.0225C67.1215 26.224 66.5157 25.1365 66.3643 23.7599H69.854C69.9641 24.2004 70.2257 24.5446 70.6387 24.7924C71.0516 25.0539 71.561 25.1847 72.1667 25.1847C72.8963 25.1847 73.4744 24.9713 73.9012 24.5446C74.3417 24.1316 74.562 23.464 74.562 22.5416V20.9104C74.2178 21.4472 73.7429 21.8878 73.1372 22.2319C72.5315 22.5623 71.8225 22.7275 71.0103 22.7275C70.0605 22.7275 69.2001 22.4866 68.4292 22.0048C67.6583 21.5092 67.0457 20.814 66.5915 19.9192C66.151 19.0107 65.9307 17.9645 65.9307 16.7806C65.9307 15.5967 66.151 14.5574 66.5915 13.6626C67.0457 12.7678 67.6583 12.0795 68.4292 11.5977C69.2001 11.1159 70.0605 10.875 71.0103 10.875ZM74.562 16.8012C74.562 15.9202 74.3142 15.225 73.8186 14.7157C73.3368 14.2064 72.7448 13.9517 72.0428 13.9517C71.3407 13.9517 70.7419 14.2064 70.2463 14.7157C69.7645 15.2113 69.5236 15.8996 69.5236 16.7806C69.5236 17.6616 69.7645 18.3637 70.2463 18.8868C70.7419 19.3961 71.3407 19.6508 72.0428 19.6508C72.7448 19.6508 73.3368 19.3961 73.8186 18.8868C74.3142 18.3774 74.562 17.6823 74.562 16.8012Z" fill="#282E32"/>
<path d="M85.2726 22.7275C84.1438 22.7275 83.1251 22.4866 82.2166 22.0048C81.3218 21.523 80.6128 20.8347 80.0897 19.9399C79.5804 19.0451 79.3257 17.9989 79.3257 16.8012C79.3257 15.6174 79.5872 14.578 80.1104 13.6832C80.6335 12.7747 81.3493 12.0795 82.2578 11.5977C83.1664 11.1159 84.1851 10.875 85.3139 10.875C86.4427 10.875 87.4614 11.1159 88.3699 11.5977C89.2785 12.0795 89.9943 12.7747 90.5174 13.6832C91.0405 14.578 91.3021 15.6174 91.3021 16.8012C91.3021 17.9851 91.0337 19.0313 90.4968 19.9399C89.9737 20.8347 89.251 21.523 88.3286 22.0048C87.4201 22.4866 86.4014 22.7275 85.2726 22.7275ZM85.2726 19.6714C85.9471 19.6714 86.5184 19.4237 86.9865 18.9281C87.4683 18.4325 87.7092 17.7236 87.7092 16.8012C87.7092 15.8789 87.4751 15.17 87.0071 14.6744C86.5528 14.1788 85.9884 13.931 85.3139 13.931C84.6256 13.931 84.0543 14.1788 83.6 14.6744C83.1458 15.1562 82.9186 15.8651 82.9186 16.8012C82.9186 17.7236 83.1389 18.4325 83.5794 18.9281C84.0337 19.4237 84.5981 19.6714 85.2726 19.6714Z" fill="#282E32"/>
<path d="M94.3318 9.8435C93.7123 9.8435 93.203 9.66454 92.8038 9.30663C92.4183 8.93495 92.2256 8.48067 92.2256 7.9438C92.2256 7.39316 92.4183 6.93888 92.8038 6.58096C93.203 6.20928 93.7123 6.02344 94.3318 6.02344C94.9375 6.02344 95.4331 6.20928 95.8185 6.58096C96.2177 6.93888 96.4173 7.39316 96.4173 7.9438C96.4173 8.48067 96.2177 8.93495 95.8185 9.30663C95.4331 9.66454 94.9375 9.8435 94.3318 9.8435ZM96.0869 11.0412V22.5633H92.556V11.0412H96.0869Z" fill="#282E32"/>
<path d="M101.557 12.6714C101.901 12.1346 102.376 11.7009 102.982 11.3706C103.588 11.0402 104.297 10.875 105.109 10.875C106.059 10.875 106.919 11.1159 107.69 11.5977C108.461 12.0795 109.067 12.7678 109.507 13.6626C109.961 14.5574 110.189 15.5967 110.189 16.7806C110.189 17.9645 109.961 19.0107 109.507 19.9192C109.067 20.814 108.461 21.5092 107.69 22.0048C106.919 22.4866 106.059 22.7275 105.109 22.7275C104.31 22.7275 103.602 22.5623 102.982 22.2319C102.376 21.9015 101.901 21.4748 101.557 20.9517V28.0549H98.0264V11.0402H101.557V12.6714ZM106.596 16.7806C106.596 15.8996 106.348 15.2113 105.852 14.7157C105.37 14.2064 104.772 13.9517 104.056 13.9517C103.354 13.9517 102.755 14.2064 102.259 14.7157C101.778 15.225 101.537 15.9202 101.537 16.8012C101.537 17.6823 101.778 18.3774 102.259 18.8868C102.755 19.3961 103.354 19.6508 104.056 19.6508C104.758 19.6508 105.357 19.3961 105.852 18.8868C106.348 18.3637 106.596 17.6616 106.596 16.7806Z" fill="#282E32"/>
<path d="M116.109 22.7275C115.104 22.7275 114.209 22.5554 113.424 22.2113C112.64 21.8671 112.02 21.3991 111.566 20.8071C111.112 20.2014 110.857 19.5269 110.802 18.7835H114.292C114.333 19.1827 114.519 19.5062 114.849 19.754C115.18 20.0018 115.586 20.1257 116.068 20.1257C116.508 20.1257 116.845 20.0431 117.079 19.8779C117.327 19.699 117.451 19.4718 117.451 19.1965C117.451 18.8661 117.279 18.6252 116.935 18.4738C116.591 18.3086 116.033 18.1297 115.262 17.9369C114.436 17.7442 113.748 17.5446 113.197 17.3381C112.647 17.1179 112.172 16.7806 111.773 16.3263C111.373 15.8583 111.174 15.2319 111.174 14.4473C111.174 13.7865 111.353 13.1877 111.711 12.6508C112.082 12.1002 112.619 11.6665 113.321 11.3499C114.037 11.0333 114.884 10.875 115.861 10.875C117.306 10.875 118.442 11.2329 119.268 11.9487C120.108 12.6646 120.59 13.6144 120.714 14.7983H117.451C117.396 14.3991 117.217 14.0825 116.914 13.8484C116.625 13.6144 116.24 13.4974 115.758 13.4974C115.345 13.4974 115.028 13.58 114.808 13.7452C114.588 13.8966 114.478 14.11 114.478 14.3853C114.478 14.7157 114.65 14.9635 114.994 15.1287C115.352 15.2939 115.902 15.4591 116.646 15.6242C117.499 15.8445 118.194 16.0648 118.731 16.285C119.268 16.4915 119.736 16.8356 120.135 17.3175C120.548 17.7855 120.762 18.4187 120.776 19.2172C120.776 19.8917 120.583 20.4974 120.197 21.0343C119.826 21.5574 119.282 21.9704 118.566 22.2732C117.864 22.5761 117.045 22.7275 116.109 22.7275Z" fill="#282E32"/>
<path d="M133.694 11.041V22.5631H130.163V20.9938C129.805 21.5031 129.316 21.9161 128.697 22.2327C128.091 22.5356 127.417 22.687 126.673 22.687C125.792 22.687 125.014 22.4943 124.34 22.1088C123.665 21.7096 123.142 21.1383 122.771 20.395C122.399 19.6516 122.213 18.7775 122.213 17.7725V11.041H125.723V17.2976C125.723 18.0685 125.923 18.6673 126.322 19.0941C126.721 19.5208 127.258 19.7342 127.933 19.7342C128.621 19.7342 129.165 19.5208 129.564 19.0941C129.963 18.6673 130.163 18.0685 130.163 17.2976V11.041H133.694Z" fill="#282E32"/>
<path d="M150.313 10.916C151.744 10.916 152.88 11.3496 153.72 12.2169C154.573 13.0841 155 14.2886 155 15.8304V22.562H151.49V16.3054C151.49 15.562 151.29 14.9907 150.891 14.5915C150.505 14.1785 149.969 13.972 149.28 13.972C148.592 13.972 148.048 14.1785 147.649 14.5915C147.264 14.9907 147.071 15.562 147.071 16.3054V22.562H143.56V16.3054C143.56 15.562 143.361 14.9907 142.962 14.5915C142.576 14.1785 142.039 13.972 141.351 13.972C140.663 13.972 140.119 14.1785 139.72 14.5915C139.334 14.9907 139.142 15.562 139.142 16.3054V22.562H135.611V11.0399H139.142V12.4853C139.5 12.0035 139.968 11.6249 140.546 11.3496C141.124 11.0605 141.778 10.916 142.507 10.916C143.375 10.916 144.146 11.1018 144.82 11.4735C145.508 11.8452 146.045 12.3752 146.431 13.0635C146.83 12.4302 147.374 11.914 148.062 11.5148C148.75 11.1156 149.501 10.916 150.313 10.916Z" fill="#282E32"/>
</g>
<defs>
<linearGradient id="paint0_linear_399_677" x1="32.8486" y1="8.60374" x2="2.30537" y2="8.60374" gradientUnits="userSpaceOnUse">
<stop stop-color="#282E32"/>
<stop offset="0.510417" stop-color="#282E32"/>
<stop offset="1" stop-color="#282E32"/>
</linearGradient>
<clipPath id="clip0_399_677">
<rect width="155" height="29" fill="white"/>
</clipPath>
</defs>
</svg>
