<svg width="592" height="276" viewBox="0 0 592 276" fill="none" xmlns="http://www.w3.org/2000/svg">
<path d="M326.411 28.6443C325.966 25.4293 324.939 22.4263 323.574 19.4863C318.088 7.67232 304.766 0.0593307 291.806 1.30733C288.57 1.61833 285.439 2.24734 282.432 3.49334C278.932 4.94334 275.877 6.77334 272.983 9.23934C268.033 13.4573 264.395 19.4723 262.86 25.7853C261.362 31.9413 261.573 38.6993 263.825 44.6513C266.343 51.3063 270.678 56.8633 276.599 60.8383C287.352 68.0573 302.63 67.8783 313.091 60.1683C314.579 59.0723 316.02 57.9243 317.333 56.6233C321.888 52.0273 325.226 45.9753 326.281 39.5593C326.577 37.7583 326.811 35.9333 326.841 34.1063C326.871 32.2653 326.663 30.4643 326.411 28.6443Z" fill="#FEEFE7"/>
<path d="M584.762 0.0016622C437.35 3.36266 318.47 122.242 315.109 269.655C315.028 273.189 317.919 276.079 321.453 275.999C468.866 272.638 587.745 153.758 591.106 6.34566C591.186 2.81066 588.296 -0.0793378 584.762 0.0016622Z" fill="#FEEFE7"/>
<path d="M7.23819 0.0016622C154.651 3.36266 273.53 122.243 276.891 269.655C276.972 273.189 274.081 276.079 270.547 275.999C123.134 272.638 4.2552 153.758 0.8942 6.34566C0.8142 2.81066 3.70419 -0.0793378 7.23819 0.0016622Z" fill="#FEEFE7"/>
</svg>
