<svg width="37" height="28" viewBox="0 0 37 28" fill="none" xmlns="http://www.w3.org/2000/svg">
<path fill-rule="evenodd" clip-rule="evenodd" d="M0.377014 8.83495C0.631014 9.61095 1.06599 10.325 1.67599 10.965C2.31299 11.637 3.15 12.159 4.19 12.533C5.225 12.906 6.55899 13.098 8.20499 13.098H10.438C10.17 15.841 9.19101 18.178 7.50201 20.11C5.81301 22.038 3.46901 23.731 0.475006 25.185L2.289 28C6.234 26.321 9.60601 23.866 12.406 20.62C15.209 17.374 16.602 14.156 16.602 10.965C16.602 7.53695 15.795 4.84895 14.164 2.90695C12.533 0.965954 10.199 0.00195312 7.15799 0.00195312C5.23399 0.00195312 3.55701 0.641954 2.13501 1.92695C0.71101 3.21195 0 4.71495 0 6.42995C0 7.25395 0.127014 8.05895 0.377014 8.83495ZM20.775 8.83495C21.027 9.61095 21.465 10.325 22.072 10.965C22.711 11.637 23.549 12.159 24.584 12.533C25.623 12.906 26.957 13.098 28.602 13.098H30.832C30.566 15.841 29.588 18.178 27.898 20.11C26.207 22.038 23.867 23.731 20.871 25.185L22.688 28C26.631 26.321 30.004 23.866 32.805 20.62C35.606 17.374 37 14.156 37 10.965C37 7.53695 36.191 4.84895 34.561 2.90695C32.932 0.965954 30.598 0.00195312 27.557 0.00195312C25.629 0.00195312 23.955 0.641954 22.533 1.92695C21.109 3.21195 20.398 4.71495 20.398 6.42995C20.398 7.25395 20.522 8.05895 20.775 8.83495Z" fill="#282E32"/>
</svg>
