<svg width="279" height="50" viewBox="0 0 279 50" fill="none" xmlns="http://www.w3.org/2000/svg">
<g clip-path="url(#clip0_63_24)">
<path d="M23.004 47.756C7.128 47.756 1.566 37.496 1.566 26.48C1.566 14.222 8.748 4.124 24.408 4.124C30.672 4.124 35.154 6.122 37.368 6.122V15.464H37.26C36.774 12.602 35.856 10.226 34.128 8.498C31.914 6.446 28.566 5.366 24.354 5.366C13.824 5.366 9.18 14.276 9.18 26.48C9.18 37.388 13.338 46.514 23.436 46.514C25.272 46.514 27.918 46.082 29.646 45.488V29.18C29.646 24.104 26.73 23.672 26.406 23.672V23.564H40.554V23.672C40.284 23.672 37.368 24.104 37.368 29.18V45.002C35.964 45.002 28.998 47.756 23.004 47.756ZM66.6959 45.812C72.2579 45.812 72.7979 39.224 72.7979 38.522H72.9059V47H44.9339V46.946C45.2579 46.946 48.1739 46.46 48.1739 41.384V10.496C48.1739 5.42 45.2579 4.934 44.9339 4.934V4.88H58.8119V4.934C58.5419 4.934 55.6259 5.42 55.6259 10.496V45.812H66.6959ZM66.736 47V46.892C67.222 46.892 70.516 46.028 72.622 40.682L83.908 12.116C86.338 5.96 82.288 4.988 82.072 4.988V4.88H92.062L103.996 40.142C105.994 46.028 108.856 46.892 109.288 46.892V47H95.572V46.892C95.68 46.892 98.272 46.19 96.544 41.006L94.222 34.094H76.564L73.864 40.898C71.866 46.082 74.674 46.892 74.782 46.892V47H66.736ZM76.996 32.906H93.79L86.068 10.01L76.996 32.906ZM129.498 47.324L114.216 10.982V41.384C114.216 46.46 117.564 46.946 117.888 46.946V47H109.302V46.946C109.626 46.946 112.974 46.46 112.974 41.384V10.496C112.974 5.42 110.058 4.934 109.788 4.934V4.88H119.616L132.792 36.362L145.806 4.88H155.364V4.934C155.04 4.934 152.124 5.42 152.124 10.496V41.384C152.124 46.46 155.04 46.946 155.364 46.946V47H141.486V46.946C141.81 46.946 144.672 46.46 144.672 41.384V10.604L129.498 47.324ZM179.867 47.756C166.475 47.756 159.347 37.82 159.347 25.94C159.347 14.06 166.475 4.124 179.867 4.124C193.259 4.124 200.387 14.06 200.387 25.94C200.387 37.82 193.259 47.756 179.867 47.756ZM166.961 25.94C166.961 37.712 171.497 46.514 179.867 46.514C188.237 46.514 192.773 37.712 192.773 25.94C192.773 14.168 188.237 5.366 179.867 5.366C171.497 5.366 166.961 14.168 166.961 25.94ZM204.403 47V46.946C204.727 46.946 207.643 46.46 207.643 41.384V10.496C207.643 5.42 204.727 4.934 204.403 4.934V4.88H219.091C224.059 4.88 228.487 5.636 231.079 8.012C233.347 9.632 234.535 12.062 234.535 15.464C234.535 21.89 229.783 26.858 223.087 28.37C227.407 28.37 229.405 29.342 231.025 33.014L234.319 40.466C236.749 45.92 239.827 46.892 240.313 46.892V47H233.239C228.811 47 228.001 45.056 225.895 40.304L223.249 34.31C221.251 29.882 219.469 29.018 216.661 29.018H215.095V41.384C215.095 46.46 218.011 46.946 218.281 46.946V47H204.403ZM215.095 27.83H216.931C223.843 27.83 227.029 22.538 227.029 16.382C227.029 13.574 226.435 11.198 225.193 9.47C223.843 7.31 221.683 6.068 218.065 6.068H215.095V27.83ZM248.277 47V46.946C248.601 46.946 251.463 46.46 251.463 41.384L251.517 29.936L241.311 10.604C238.881 5.906 236.019 4.988 235.587 4.988V4.88H249.141V4.934C249.087 4.934 246.819 5.744 248.871 9.632L258.105 27.344L266.907 10.172C269.121 5.852 266.583 4.934 266.475 4.934V4.88H274.359V4.988C273.765 4.988 270.309 6.014 267.717 11.144L258.915 28.262V41.384C258.915 46.46 261.831 46.946 262.101 46.946V47H248.277Z" fill="#FEEFE7"/>
</g>
<defs>
<clipPath id="clip0_63_24">
<rect width="279" height="50" fill="white"/>
</clipPath>
</defs>
</svg>
